<svg width="560" height="420" viewBox="0 0 560 420" fill="none" xmlns="http://www.w3.org/2000/svg">
  <rect width="560" height="420" rx="36" fill="#FFF8E8"/>
  <rect x="58" y="64" width="444" height="292" rx="20" fill="#FFFFFF" stroke="#DDE5F0" stroke-width="4"/>
  <path d="M106 314H456" stroke="#B6C2D1" stroke-width="4" stroke-linecap="round"/>
  <rect x="124" y="236" width="46" height="78" rx="10" fill="#0D1B2A"/>
  <rect x="194" y="198" width="46" height="116" rx="10" fill="#1B263B"/>
  <rect x="264" y="158" width="46" height="156" rx="10" fill="#415A77"/>
  <rect x="334" y="126" width="46" height="188" rx="10" fill="#778DA9"/>
  <rect x="404" y="94" width="46" height="220" rx="10" fill="#E0A800"/>
  <path d="M124 156C158 132 198 118 240 118C294 118 332 148 372 168C396 180 422 186 450 182" stroke="#E0A800" stroke-width="8" stroke-linecap="round"/>
  <circle cx="124" cy="156" r="8" fill="#E0A800"/>
  <circle cx="240" cy="118" r="8" fill="#E0A800"/>
  <circle cx="372" cy="168" r="8" fill="#E0A800"/>
  <circle cx="450" cy="182" r="8" fill="#E0A800"/>
</svg>
